<mxfile host="app.diagrams.net" modified="2024-07-04T09:27:05.469Z" agent="Mozilla/5.0 (Windows NT 10.0; Win64; x64) AppleWebKit/537.36 (KHTML, like Gecko) Chrome/126.0.0.0 Safari/537.36" version="24.6.4" etag="igBAv5ae9q-LHQ8RR_aP" type="github">
  <diagram name="Seite-1" id="qjP26n-9z4Dr1NR11TSN">
    <mxGraphModel>
      <root>
        <mxCell id="0" />
        <mxCell id="1" parent="0" />
      </root>
    </mxGraphModel>
  </diagram>
</mxfile>
